<mxfile host="Electron" agent="Mozilla/5.0 (Windows NT 10.0; Win64; x64) AppleWebKit/537.36 (KHTML, like Gecko) draw.io/26.2.2 Chrome/134.0.6998.178 Electron/35.1.2 Safari/537.36" version="26.2.2">
  <diagram name="Страница — 1" id="mbrKNKBMgxBtGpDZQrjn">
    <mxGraphModel dx="1030" dy="707" grid="1" gridSize="10" guides="1" tooltips="1" connect="1" arrows="1" fold="1" page="1" pageScale="1" pageWidth="827" pageHeight="1169" math="0" shadow="0">
      <root>
        <mxCell id="0" />
        <mxCell id="1" parent="0" />
        <mxCell id="oCOYeDaYRa0MHwsRNCp5-2" value="&amp;lt;&amp;lt;interface&amp;gt;&amp;gt;&lt;div&gt;Container&lt;/div&gt;" style="swimlane;fontStyle=0;childLayout=stackLayout;horizontal=1;startSize=30;fillColor=none;horizontalStack=0;resizeParent=1;resizeParentMax=0;resizeLast=0;collapsible=1;marginBottom=0;whiteSpace=wrap;html=1;" vertex="1" parent="1">
          <mxGeometry x="40" y="40" width="240" height="56" as="geometry" />
        </mxCell>
        <mxCell id="oCOYeDaYRa0MHwsRNCp5-3" value="+&amp;nbsp;Object getDependency(String key)" style="text;strokeColor=none;fillColor=none;align=left;verticalAlign=top;spacingLeft=4;spacingRight=4;overflow=hidden;rotatable=0;points=[[0,0.5],[1,0.5]];portConstraint=eastwest;whiteSpace=wrap;html=1;" vertex="1" parent="oCOYeDaYRa0MHwsRNCp5-2">
          <mxGeometry y="30" width="240" height="26" as="geometry" />
        </mxCell>
        <mxCell id="oCOYeDaYRa0MHwsRNCp5-8" style="edgeStyle=orthogonalEdgeStyle;rounded=0;orthogonalLoop=1;jettySize=auto;html=1;exitX=0.5;exitY=0;exitDx=0;exitDy=0;" edge="1" parent="1" source="oCOYeDaYRa0MHwsRNCp5-6" target="oCOYeDaYRa0MHwsRNCp5-2">
          <mxGeometry relative="1" as="geometry" />
        </mxCell>
        <mxCell id="oCOYeDaYRa0MHwsRNCp5-6" value="&amp;lt;&amp;lt;interface&amp;gt;&amp;gt;&lt;div&gt;ManagedComponent&lt;/div&gt;" style="swimlane;fontStyle=0;childLayout=stackLayout;horizontal=1;startSize=30;fillColor=none;horizontalStack=0;resizeParent=1;resizeParentMax=0;resizeLast=0;collapsible=1;marginBottom=0;whiteSpace=wrap;html=1;" vertex="1" parent="1">
          <mxGeometry x="40" y="160" width="240" height="56" as="geometry" />
        </mxCell>
        <mxCell id="oCOYeDaYRa0MHwsRNCp5-7" value="+ void performLookup(Container container)" style="text;strokeColor=none;fillColor=none;align=left;verticalAlign=top;spacingLeft=4;spacingRight=4;overflow=hidden;rotatable=0;points=[[0,0.5],[1,0.5]];portConstraint=eastwest;whiteSpace=wrap;html=1;" vertex="1" parent="oCOYeDaYRa0MHwsRNCp5-6">
          <mxGeometry y="30" width="240" height="26" as="geometry" />
        </mxCell>
        <mxCell id="oCOYeDaYRa0MHwsRNCp5-13" style="edgeStyle=orthogonalEdgeStyle;rounded=0;orthogonalLoop=1;jettySize=auto;html=1;" edge="1" parent="1" source="oCOYeDaYRa0MHwsRNCp5-9" target="oCOYeDaYRa0MHwsRNCp5-2">
          <mxGeometry relative="1" as="geometry" />
        </mxCell>
        <mxCell id="oCOYeDaYRa0MHwsRNCp5-24" style="edgeStyle=orthogonalEdgeStyle;rounded=0;orthogonalLoop=1;jettySize=auto;html=1;exitX=1;exitY=0.5;exitDx=0;exitDy=0;entryX=0.5;entryY=0;entryDx=0;entryDy=0;" edge="1" parent="1" source="oCOYeDaYRa0MHwsRNCp5-9" target="oCOYeDaYRa0MHwsRNCp5-14">
          <mxGeometry relative="1" as="geometry" />
        </mxCell>
        <mxCell id="oCOYeDaYRa0MHwsRNCp5-9" value="&lt;div&gt;&amp;lt;&amp;lt;class&amp;gt;&amp;gt;&lt;/div&gt;DefaultContainer" style="swimlane;fontStyle=0;childLayout=stackLayout;horizontal=1;startSize=38;fillColor=none;horizontalStack=0;resizeParent=1;resizeParentMax=0;resizeLast=0;collapsible=1;marginBottom=0;whiteSpace=wrap;html=1;" vertex="1" parent="1">
          <mxGeometry x="380" y="42" width="140" height="52" as="geometry" />
        </mxCell>
        <mxCell id="oCOYeDaYRa0MHwsRNCp5-14" value="&lt;div&gt;&amp;lt;&amp;lt;class&amp;gt;&amp;gt;&lt;/div&gt;Dependency" style="swimlane;fontStyle=0;childLayout=stackLayout;horizontal=1;startSize=26;fillColor=none;horizontalStack=0;resizeParent=1;resizeParentMax=0;resizeLast=0;collapsible=1;marginBottom=0;whiteSpace=wrap;html=1;" vertex="1" parent="1">
          <mxGeometry x="640" y="157" width="140" height="52" as="geometry" />
        </mxCell>
        <mxCell id="oCOYeDaYRa0MHwsRNCp5-15" value="+&amp;nbsp;public String toString()" style="text;strokeColor=none;fillColor=none;align=left;verticalAlign=top;spacingLeft=4;spacingRight=4;overflow=hidden;rotatable=0;points=[[0,0.5],[1,0.5]];portConstraint=eastwest;whiteSpace=wrap;html=1;" vertex="1" parent="oCOYeDaYRa0MHwsRNCp5-14">
          <mxGeometry y="26" width="140" height="26" as="geometry" />
        </mxCell>
        <mxCell id="oCOYeDaYRa0MHwsRNCp5-18" value="&lt;div&gt;&amp;lt;&amp;lt;class&amp;gt;&amp;gt;&lt;/div&gt;ContextualizedDependencyLookup" style="swimlane;fontStyle=0;childLayout=stackLayout;horizontal=1;startSize=40;fillColor=none;horizontalStack=0;resizeParent=1;resizeParentMax=0;resizeLast=0;collapsible=1;marginBottom=0;whiteSpace=wrap;html=1;" vertex="1" parent="1">
          <mxGeometry x="370" y="130" width="230" height="92" as="geometry" />
        </mxCell>
        <mxCell id="oCOYeDaYRa0MHwsRNCp5-19" value="Dependency dependency" style="text;strokeColor=none;fillColor=none;align=left;verticalAlign=top;spacingLeft=4;spacingRight=4;overflow=hidden;rotatable=0;points=[[0,0.5],[1,0.5]];portConstraint=eastwest;whiteSpace=wrap;html=1;" vertex="1" parent="oCOYeDaYRa0MHwsRNCp5-18">
          <mxGeometry y="40" width="230" height="26" as="geometry" />
        </mxCell>
        <mxCell id="oCOYeDaYRa0MHwsRNCp5-20" value="void performLookup(Container container)" style="text;strokeColor=none;fillColor=none;align=left;verticalAlign=top;spacingLeft=4;spacingRight=4;overflow=hidden;rotatable=0;points=[[0,0.5],[1,0.5]];portConstraint=eastwest;whiteSpace=wrap;html=1;" vertex="1" parent="oCOYeDaYRa0MHwsRNCp5-18">
          <mxGeometry y="66" width="230" height="26" as="geometry" />
        </mxCell>
        <mxCell id="oCOYeDaYRa0MHwsRNCp5-22" style="edgeStyle=orthogonalEdgeStyle;rounded=0;orthogonalLoop=1;jettySize=auto;html=1;" edge="1" parent="1" source="oCOYeDaYRa0MHwsRNCp5-19" target="oCOYeDaYRa0MHwsRNCp5-14">
          <mxGeometry relative="1" as="geometry" />
        </mxCell>
        <mxCell id="oCOYeDaYRa0MHwsRNCp5-23" style="edgeStyle=orthogonalEdgeStyle;rounded=0;orthogonalLoop=1;jettySize=auto;html=1;exitX=0;exitY=0.5;exitDx=0;exitDy=0;entryX=0;entryY=0.75;entryDx=0;entryDy=0;" edge="1" parent="1" source="oCOYeDaYRa0MHwsRNCp5-20" target="oCOYeDaYRa0MHwsRNCp5-9">
          <mxGeometry relative="1" as="geometry" />
        </mxCell>
      </root>
    </mxGraphModel>
  </diagram>
</mxfile>
